<svg width="60" height="60" viewBox="0 0 60 60" fill="none" xmlns="http://www.w3.org/2000/svg">
<rect x="2" y="2" width="56" height="56" rx="28" stroke="#0A3D62" stroke-width="4"/>
<path d="M43.4523 15L33.9467 18.5694L37.3581 20.7201C31.264 28.3942 22.4484 33.1212 15 34.9205L17.1101 38.764C25.4794 36.0361 34.3401 31.1156 40.0473 22.4226L42.6462 24.0606L43.4523 15ZM43.9488 22.5258L43.6393 26.0598L40.331 23.9703C40.215 24.1445 40.0924 24.3121 39.9699 24.4862V45.0967H45V22.5258H43.9488ZM34.2369 30.7803C33.4179 31.4897 32.5731 32.1604 31.7154 32.7923V45.0967H36.7455V30.7803H34.2369ZM26.2597 36.1973C25.331 36.6874 24.4024 37.1389 23.4609 37.5645V45.0967H28.491V36.1973H26.2597ZM15.2064 39.0348V45.0967H20.2365V39.0348H19.8702C18.9144 39.3895 17.9594 39.7184 17.0101 40.0215L16.5548 40.1634L15.9357 39.0348H15.2064Z" fill="#0A3D62"/>
</svg>
